<svg width="1335" height="134" viewBox="0 0 1335 134" fill="none" xmlns="http://www.w3.org/2000/svg">
<path d="M1299.92 48.05C1311.02 48.05 1319.62 52.2001 1325.72 60.5001C1331.82 68.8001 1334.72 80.6001 1334.42 95.9001H1281.47C1282.67 100.5 1284.67 104.15 1287.47 106.85C1290.27 109.45 1293.82 110.75 1298.12 110.75C1305.22 110.75 1315.82 108.15 1329.92 102.95L1334.42 113.15L1313.87 129.65C1307.07 131.55 1298.92 132.5 1289.42 132.5C1281.62 132.5 1274.62 130.8 1268.42 127.4C1262.32 123.9 1257.52 119.15 1254.02 113.15C1250.62 107.05 1248.92 100.3 1248.92 92.9001C1248.92 84.9001 1251.57 77.4501 1256.87 70.5501C1262.17 63.6501 1268.82 58.2001 1276.82 54.2001C1284.82 50.1001 1292.57 48.05 1300.07 48.05H1299.92ZM1291.97 68.1501C1288.27 68.1501 1285.47 69.4501 1283.57 72.0501C1281.67 74.5501 1280.62 78.4501 1280.42 83.7501H1305.17C1304.67 78.4501 1303.37 74.5501 1301.27 72.0501C1299.17 69.4501 1296.02 68.1501 1291.82 68.1501H1291.97Z" fill="#F4F4F5"/>
<path d="M1240.61 131H1189.76V120.35L1203.11 108.65V32.7501L1189.76 24.05V13.4L1221.41 0.0500488H1233.11V114.8L1246.61 119L1240.61 131Z" fill="#EF4444"/>
<path d="M1152.96 47.9C1159.56 47.9 1165.46 49.6501 1170.66 53.15C1175.96 56.5501 1180.06 61.3 1182.96 67.4C1185.96 73.4 1187.46 80.1001 1187.46 87.5001C1187.46 95.5001 1184.81 102.95 1179.51 109.85C1174.21 116.75 1167.56 122.25 1159.56 126.35C1151.56 130.35 1143.81 132.35 1136.31 132.35C1128.51 132.35 1121.81 129.65 1116.21 124.25L1109.01 131H1097.31V32.7501L1083.96 24.05V13.4L1115.61 0.0500488H1127.31V61.1L1142.01 49.2501C1145.21 48.4501 1148.86 48.05 1152.96 48.05V47.9ZM1144.86 112.25C1152.16 112.25 1155.81 106.35 1155.81 94.5501C1155.81 87.5501 1154.71 81.9001 1152.51 77.6001C1150.31 73.2001 1147.01 71.0001 1142.61 71.0001C1137.21 71.0001 1132.11 72.1001 1127.31 74.3001V97.5501C1127.31 101.75 1128.86 105.25 1131.96 108.05C1135.06 110.85 1139.41 112.25 1145.01 112.25H1144.86Z" fill="#F4F4F5"/>
<path d="M1082.25 131H1044.75V117.95L1027.8 131.3C1025.8 132.1 1023.3 132.5 1020.3 132.5C1010.1 132.5 1002.7 130.05 998.096 125.15C993.596 120.15 991.346 114.15 991.346 107.15C991.346 103.15 992.496 99.2501 994.796 95.4501C997.096 91.5501 1000.45 87.9501 1004.85 84.6501H1044.75C1044.45 80.2501 1042.95 76.9501 1040.25 74.7501C1037.55 72.4501 1034.15 71.3 1030.05 71.3C1023.15 71.3 1013.05 73.4001 999.746 77.6001L995.246 67.4001L1015.8 50.9001C1021.3 49.0001 1027.9 48.05 1035.6 48.05C1048 48.05 1057.65 50.8001 1064.55 56.3001C1071.45 61.7001 1074.9 69.6501 1074.9 80.1501V113.75L1088.25 119L1082.25 131ZM1029.45 107.75C1033.85 107.75 1038.95 106.05 1044.75 102.65V96.8001H1021.95C1021.45 97.7001 1021.1 98.5001 1020.9 99.2001C1020.7 99.8001 1020.6 100.6 1020.6 101.6C1020.6 103.5 1021.35 105 1022.85 106.1C1024.45 107.2 1026.7 107.75 1029.6 107.75H1029.45Z" fill="#EF4444"/>
<path d="M995.997 53.9L985.497 58.4L963.747 27.35H952.497V114.95L969.747 119L963.747 131H906.147V120.35L920.247 109.25V27.35H909.447L887.697 58.4L877.197 53.9V10.4L889.647 13.1H983.547L995.997 10.4V53.9Z" fill="#F4F4F5"/>
<path d="M805.064 110.3C805.064 108.9 803.914 107.4 801.614 105.8C799.414 104.1 795.864 101.8 790.964 98.9001C783.064 94.3001 776.914 90.1501 772.514 86.4501C768.114 82.7501 765.914 78.6501 765.914 74.1501C765.914 70.5501 767.764 66.7001 771.464 62.6001C775.164 58.5001 779.664 55.0501 784.964 52.2501C790.364 49.4501 795.314 48.05 799.814 48.05C805.314 48.05 811.714 48.6501 819.014 49.8501C826.314 50.9501 831.614 52.2001 834.914 53.6001V79.7001H823.214C820.814 75.5001 817.864 72.2001 814.364 69.8001C810.864 67.3001 807.314 66.0501 803.714 66.0501C802.314 66.0501 801.214 66.4501 800.414 67.2501C799.714 68.0501 799.364 69.0501 799.364 70.2501C799.364 71.8501 800.514 73.5501 802.814 75.3501C805.214 77.0501 808.964 79.4001 814.064 82.4001C821.764 86.8001 827.764 90.8001 832.064 94.4001C836.364 98.0001 838.514 102 838.514 106.4C838.514 110.1 836.614 114 832.814 118.1C829.014 122.1 824.364 125.5 818.864 128.3C813.364 131.1 808.314 132.5 803.714 132.5C797.914 132.5 791.014 131.95 783.014 130.85C775.014 129.65 769.264 128.35 765.764 126.95V99.3501H777.464C780.264 104.05 783.714 107.75 787.814 110.45C791.914 113.15 795.964 114.5 799.964 114.5C801.464 114.5 802.664 114.1 803.564 113.3C804.564 112.5 805.064 111.5 805.064 110.3Z" fill="#22C55E"/>
<path d="M758.053 131H720.553V117.95L703.603 131.3C701.603 132.1 699.103 132.5 696.103 132.5C685.903 132.5 678.503 130.05 673.903 125.15C669.403 120.15 667.153 114.15 667.153 107.15C667.153 103.15 668.303 99.2501 670.603 95.4501C672.903 91.5501 676.253 87.9501 680.653 84.6501H720.553C720.253 80.2501 718.753 76.9501 716.053 74.7501C713.353 72.4501 709.953 71.3 705.853 71.3C698.953 71.3 688.853 73.4001 675.553 77.6001L671.053 67.4001L691.603 50.9001C697.103 49.0001 703.703 48.05 711.403 48.05C723.803 48.05 733.453 50.8001 740.353 56.3001C747.253 61.7001 750.703 69.6501 750.703 80.1501V113.75L764.053 119L758.053 131ZM705.253 107.75C709.653 107.75 714.753 106.05 720.553 102.65V96.8001H697.753C697.253 97.7001 696.903 98.5001 696.703 99.2001C696.503 99.8001 696.403 100.6 696.403 101.6C696.403 103.5 697.153 105 698.653 106.1C700.253 107.2 702.503 107.75 705.403 107.75H705.253Z" fill="#22C55E"/>
<path d="M660.914 131H623.414V81.6499C623.414 78.3499 622.914 76.05 621.914 74.75C620.914 73.45 619.114 72.8 616.514 72.8C612.714 72.8 608.964 73.7999 605.264 75.7999V115.1L617.264 119L611.264 131H575.264V81.6499C575.264 78.3499 574.764 76.05 573.764 74.75C572.764 73.45 570.964 72.8 568.364 72.8C564.564 72.8 560.814 73.7999 557.114 75.7999V115.1L569.114 119L563.114 131H513.764V120.35L527.114 108.65V79.3999L513.764 70.7V60.05L548.414 46.7L554.714 62.8999L571.664 49.25C573.864 48.45 576.614 48.0499 579.914 48.0499C585.814 48.0499 590.814 49.3 594.914 51.8C599.014 54.2 601.914 57.6499 603.614 62.1499L619.664 49.25C621.864 48.45 624.614 48.0499 627.914 48.0499C635.614 48.0499 641.714 50.1499 646.214 54.3499C650.814 58.4499 653.114 64.0499 653.114 71.1499V114.8L666.914 119L660.914 131Z" fill="#22C55E"/>
<path d="M497.916 131.3C493.816 132.1 489.016 132.5 483.516 132.5C473.116 132.5 465.516 130.35 460.716 126.05C455.916 121.65 453.516 114.9 453.516 105.8V66.2H437.316V57.05L471.816 20.9H483.516V54.05H510.516V66.2H483.516V103.1C483.516 109.2 487.416 112.25 495.216 112.25C497.216 112.25 499.166 112.05 501.066 111.65C503.066 111.15 505.566 110.3 508.566 109.1L513.066 119.3L497.916 131.3Z" fill="#22C55E"/>
<path d="M405.577 110.3C405.577 108.9 404.427 107.4 402.127 105.8C399.927 104.1 396.377 101.8 391.477 98.9001C383.577 94.3001 377.427 90.1501 373.027 86.4501C368.627 82.7501 366.427 78.6501 366.427 74.1501C366.427 70.5501 368.277 66.7001 371.977 62.6001C375.677 58.5001 380.177 55.0501 385.477 52.2501C390.877 49.4501 395.827 48.05 400.327 48.05C405.827 48.05 412.227 48.6501 419.527 49.8501C426.827 50.9501 432.127 52.2001 435.427 53.6001V79.7001H423.727C421.327 75.5001 418.377 72.2001 414.877 69.8001C411.377 67.3001 407.827 66.0501 404.227 66.0501C402.827 66.0501 401.727 66.4501 400.927 67.2501C400.227 68.0501 399.877 69.0501 399.877 70.2501C399.877 71.8501 401.027 73.5501 403.327 75.3501C405.727 77.0501 409.477 79.4001 414.577 82.4001C422.277 86.8001 428.277 90.8001 432.577 94.4001C436.877 98.0001 439.027 102 439.027 106.4C439.027 110.1 437.127 114 433.327 118.1C429.527 122.1 424.877 125.5 419.377 128.3C413.877 131.1 408.827 132.5 404.227 132.5C398.427 132.5 391.527 131.95 383.527 130.85C375.527 129.65 369.777 128.35 366.277 126.95V99.3501H377.977C380.777 104.05 384.227 107.75 388.327 110.45C392.427 113.15 396.477 114.5 400.477 114.5C401.977 114.5 403.177 114.1 404.077 113.3C405.077 112.5 405.577 111.5 405.577 110.3Z" fill="#22C55E"/>
<path d="M358.786 131H307.936V120.35L321.286 108.65V79.4L307.936 70.7V60.05L339.586 46.7H351.286V114.8L364.786 119L358.786 131ZM336.436 1.25C341.436 1.25 345.536 2.8 348.736 5.9C352.036 9 353.686 12.85 353.686 17.45C353.686 20.65 352.486 23.65 350.086 26.45C347.786 29.25 344.886 31.5 341.386 33.2C337.886 34.9 334.486 35.75 331.186 35.75C326.286 35.75 322.186 34.2 318.886 31.1C315.586 28 313.936 24.2 313.936 19.7C313.936 16.5 315.086 13.5 317.386 10.7C319.786 7.80001 322.736 5.5 326.236 3.8C329.736 2.09999 333.136 1.25 336.436 1.25Z" fill="#22C55E"/>
<path d="M275.591 72.8C272.791 72.8 270.091 73.7 267.491 75.5V113.15L291.491 119L285.491 131H224.141V120.35L237.491 108.65V79.3999L224.141 70.7V60.05L258.791 46.7L264.791 62.2999L277.541 49.25C279.341 48.45 281.591 48.0499 284.291 48.0499C290.791 48.0499 296.241 49.3999 300.641 52.0999C305.041 54.7999 308.041 58.5499 309.641 63.3499L292.691 84.6499H280.991C280.991 80.3499 280.591 77.3 279.791 75.5C278.991 73.7 277.591 72.8 275.591 72.8Z" fill="#22C55E"/>
<path d="M218.102 130.85H180.602V84.5001C180.602 80.2001 179.952 77.15 178.652 75.35C177.452 73.55 175.302 72.65 172.202 72.65C167.902 72.65 163.702 73.7 159.602 75.8V114.8L173.102 119L167.102 131H116.252V120.35L129.602 108.65V32.7501L116.252 24.05V13.4L147.902 0.0500488H159.602V60.9501L174.152 49.2501C176.852 48.4501 180.102 48.05 183.902 48.05C192.102 48.05 198.602 50.15 203.402 54.35C208.202 58.45 210.602 64.05 210.602 71.15V114.8L224.102 118.85L218.102 130.85Z" fill="#22C55E"/>
<path d="M71 10.1C77.2 10.1 84.4 10.85 92.6 12.35C100.8 13.85 106.8 15.45 110.6 17.15V50.75H91.4C87.7 43.65 83.35 38.45 78.35 35.15C73.45 31.85 68.1 30.2 62.3 30.2C57.4 30.2 52.9 31.85 48.8 35.15C44.8 38.35 41.6 42.8 39.2 48.5C36.9 54.2 35.75 60.55 35.75 67.55C35.75 75.45 36.95 82.7 39.35 89.3C41.75 95.8 45.4 101 50.3 104.9C55.2 108.8 61.25 110.75 68.45 110.75C77.95 110.75 91.35 106.55 108.65 98.15L115.55 109.25L87.95 130.7C83.15 132.1 78.55 133 74.15 133.4C69.85 133.8 65.15 134 60.05 134C48.35 134 38 131.45 29 126.35C20 121.25 13 114.25 8 105.35C3 96.35 0.5 86.15 0.5 74.75C0.5 63.05 4.2 52.25 11.6 42.35C19.1 32.35 28.35 24.5 39.35 18.8C50.45 13 61 10.1 71 10.1Z" fill="#22C55E"/>
</svg>
